<svg xmlns="http://www.w3.org/2000/svg" xml:space="preserve" width="655.359" height="655.359" style="shape-rendering:geometricPrecision;text-rendering:geometricPrecision;image-rendering:optimizeQuality;fill-rule:evenodd;clip-rule:evenodd" viewBox="0 0 6.827 6.827"><defs><style>.fil1{fill:#fffffe;fill-rule:nonzero}</style></defs><path style="fill:#424242" d="M0 0h6.827v6.827H0z"/><g id="Layer_x0020_1"><path class="fil1" d="M2.404 1.583a.515.515 0 0 1-.517.517.515.515 0 0 1-.365-.882.515.515 0 0 1 .882.365zm-.303.215a.303.303 0 1 0-.428-.429.303.303 0 0 0 .428.43zM3.182 3.1a3.02 3.02 0 0 1-.54-.36 1.16 1.16 0 0 0-.424-.245 1.465 1.465 0 0 0-.283-.06.837.837 0 0 0-.364.03.306.306 0 0 0-.199.2.43.43 0 0 0-.017.085l-.102.965c-.014.129.044.435.086.653l.03.163-.005.051-.38 1.111c-.005.019-.001.033.008.042a.058.058 0 0 0 .043.017c.012 0 .025-.008.033-.026l.497-1.13c.013-.03-.003-.173-.013-.266l-.007-.067.19-.074.295.374.019.034.319 1.024a.181.181 0 0 0 .05.069c.01.006.018.009.026.007h.003c.014-.003.022-.01.025-.016a.082.082 0 0 0 .003-.05v-.004l-.23-1.007-.002-.034c.004-.04-.165-.32-.261-.479l-.058-.096-.013-.07.123-.749c.015-.09.045-.2.105-.273.079-.098.191-.138.35-.04l.553.337c.073.039.13.038.166.016a.07.07 0 0 0 .023-.023.058.058 0 0 0 .009-.027c.001-.026-.016-.056-.058-.082zm-.406-.525c.117.094.256.206.51.34l.005.002c.119.072.167.177.161.277a.271.271 0 0 1-.133.22c-.094.058-.23.07-.383-.014l-.005-.002-.552-.338c-.04-.025-.063-.022-.075-.007a.409.409 0 0 0-.06.174l-.117.71.036.06c.101.167.274.452.291.581l.228 1.002.002.01a.29.29 0 0 1-.02.186.24.24 0 0 1-.17.128l-.01.002a.239.239 0 0 1-.19-.044.395.395 0 0 1-.122-.158l-.005-.013L1.85 4.68l-.072-.092a.295.295 0 0 1-.019.095l-.497 1.13a.244.244 0 0 1-.22.153.27.27 0 0 1-.2-.078.245.245 0 0 1-.06-.262l.37-1.086a2.763 2.763 0 0 0-.024-.131c-.043-.232-.105-.556-.088-.715l.102-.965a.646.646 0 0 1 .026-.127.51.51 0 0 1 .33-.335 1.03 1.03 0 0 1 .458-.042c.117.012.23.038.325.068.234.074.349.166.494.283zM5.74 5.08a.497.497 0 0 1 .15.047.319.319 0 0 0 .154-.054 1.104 1.104 0 0 0-.101-.06c-.032-.018-.059-.032-.07-.044a1.86 1.86 0 0 0-.107-.093c-.035-.028-.058-.047-.059-.074V4.8c-.001-.038.015-.045.039-.056l.02-.02a1.03 1.03 0 0 0-.019.008l-.042.017-.085.028.016-.088a.322.322 0 0 1 .017-.066.773.773 0 0 0 .01-.037c-.014-.001-.026.046-.07.071a4.007 4.007 0 0 1-.155.081.294.294 0 0 1-.073.023c-.202.027-.324-.001-.456-.031a1.506 1.506 0 0 0-.306-.047h-.005c-.174-.006-.426-.015-.782.143a.71.71 0 0 0-.226.191c-.099.11-.192.215-.354.222a.678.678 0 0 0-.181.025c-.03.01-.045.02-.05.03-.006.009-.004.018 0 .027a.152.152 0 0 0 .035.044c.115.108.196.153.258.158.054.005.098-.026.142-.074a4.413 4.413 0 0 0 .255-.317c.03-.04.06-.08.092-.115a.33.33 0 0 1 .12-.086l.102-.039-.031.104-.027.08a13.14 13.14 0 0 1-.036.102c-.044.125-.09.153-.122.173-.016.01-.021.014.026.272.003.02.018.035.037.047a.175.175 0 0 0 .114.023h.01a.05.05 0 0 0-.003-.011.18.18 0 0 0-.032-.044c-.035-.04-.07-.08-.061-.16a.164.164 0 0 1 .018-.06.21.21 0 0 1 .044-.057c.026-.024.056-.03.093-.036a.284.284 0 0 0 .099-.033l.058-.036.02.066.003.008c.008.027.012.04.013.06a.36.36 0 0 1-.007.062l-.002.012c-.004.029.092.124.151.182l.026.027c.027.029.05.052.09.06a.206.206 0 0 0 .05.004.307.307 0 0 0 .053-.007c-.011-.018-.045-.033-.081-.05-.1-.044-.206-.092-.167-.264.021-.096.042-.159.081-.199.045-.045.102-.055.193-.043a4.047 4.047 0 0 1 .184.03c.045.013.055.14.064.249l.011.12c.007.03.02.065.038.095a.143.143 0 0 0 .045.05c.008.005.028 0 .05-.004l.034-.008a.041.041 0 0 0 .01-.003.037.037 0 0 0 .014-.01l.002-.003c-.005-.01-.019-.015-.032-.02-.043-.013-.084-.027-.1-.099a.67.67 0 0 1-.007-.206l.003-.054.003-.048.048-.003a.659.659 0 0 0 .056-.005l.055-.009.005.056c.01.088.114.146.212.201a.607.607 0 0 1 .203.15.091.091 0 0 0 .024.01.184.184 0 0 0 .1-.012 1.641 1.641 0 0 1-.187-.113c-.137-.098-.26-.23-.169-.358.038-.052.105-.081.18-.096a.885.885 0 0 1 .276-.004zm.041.12a.39.39 0 0 0-.056-.014.77.77 0 0 0-.24.003c-.05.01-.094.026-.113.053-.04.057.049.142.143.209.093.066.192.115.206.122h.001l.026.027a.116.116 0 0 1 .01.05.103.103 0 0 1-.05.085.215.215 0 0 1-.076.03.299.299 0 0 1-.116 0 .199.199 0 0 1-.054-.021.154.154 0 0 1-.043-.038.545.545 0 0 0-.157-.11c-.086-.048-.177-.099-.227-.175a.469.469 0 0 0 .008.127c.003.013.016.017.029.022.035.011.072.023.095.076a.107.107 0 0 1-.012.11.145.145 0 0 1-.093.055l-.027.006c-.043.01-.083.02-.127-.006a.245.245 0 0 1-.084-.088.438.438 0 0 1-.05-.128 1.698 1.698 0 0 1-.013-.134c-.006-.075.042-.146.014-.153a3.91 3.91 0 0 0-.17-.028c-.055-.008-.086-.005-.103.012-.022.022-.036.07-.054.147-.02.088.046.117.107.145.065.029.127.056.145.128a.097.097 0 0 1-.007.072.097.097 0 0 1-.066.047.423.423 0 0 1-.081.012.312.312 0 0 1-.077-.005c-.074-.015-.107-.05-.146-.092a.993.993 0 0 0-.024-.024c-.074-.074-.193-.192-.18-.274l.001-.013a1.84 1.84 0 0 0 .004-.021.382.382 0 0 1-.066.015.146.146 0 0 0-.04.01.106.106 0 0 0-.022.028.058.058 0 0 0-.006.021c-.004.035.016.057.035.08a.263.263 0 0 1 .05.073.142.142 0 0 1 .012.052.1.1 0 0 1-.014.054c-.016.027-.047.044-.084.05a.283.283 0 0 1-.188-.036.175.175 0 0 1-.087-.119c-.034-.186-.042-.27-.032-.316a4.765 4.765 0 0 1-.164.196c-.066.07-.135.115-.229.108-.085-.007-.187-.061-.322-.187a.254.254 0 0 1-.06-.079.13.13 0 0 1 .005-.122c.017-.032.051-.06.11-.079a.779.779 0 0 1 .21-.03c.117-.005.196-.094.279-.187a.79.79 0 0 1 .262-.217c.378-.168.645-.159.83-.152h.004c.136.005.233.027.326.049.122.028.235.054.417.03a.2.2 0 0 0 .046-.016 3.65 3.65 0 0 0 .144-.075c.086-.05.16-.092.2-.056a.09.09 0 0 1 .03.056.13.13 0 0 1-.003.046.16.16 0 0 1 .032-.005.093.093 0 0 1 .065.02c.019.015.03.036.031.066v.002c0 .039-.026.074-.055.106.03.024.07.057.106.093l.048.027a.7.7 0 0 1 .138.089c.022.021.03.045.028.07a.105.105 0 0 1-.042.07.285.285 0 0 1-.063.039c-.073.033-.178.05-.21.036a.598.598 0 0 0-.064-.025zm-2-.005a6.09 6.09 0 0 1-.054.073.894.894 0 0 1 .01-.007c.018-.01.043-.026.072-.103l-.028.037zm.818.538c0 .001 0 .002 0 0 .001-.001 0 0 0 0z"/><path class="fil1" d="m3.444 3.264 1.92 1.386-.062.086-1.92-1.386z"/><path style="fill:none" d="M0 0h6.827v6.827H0z"/></g></svg>