<?xml version="1.0" encoding="UTF-8"?>
<!DOCTYPE svg PUBLIC "-//W3C//DTD SVG 1.1//EN" "http://www.w3.org/Graphics/SVG/1.1/DTD/svg11.dtd">
<!-- Creator: CorelDRAW -->
<svg xmlns="http://www.w3.org/2000/svg" xml:space="preserve" width="6.82666in" height="6.82666in" style="shape-rendering:geometricPrecision; text-rendering:geometricPrecision; image-rendering:optimizeQuality; fill-rule:evenodd; clip-rule:evenodd"
viewBox="0 0 6.82666 6.82666"
 xmlns:xlink="http://www.w3.org/1999/xlink">
 <defs>
  <style type="text/css">
   <![CDATA[
    .fil2 {fill:none}
    .fil0 {fill:#424242}
    .fil1 {fill:#FFFFFE;fill-rule:nonzero}
   ]]>
  </style>
 </defs>
 <rect class="fil0" width="6.82666" height="6.82666"/>
 <g id="Layer_x0020_1">
  <metadata id="CorelCorpID_0Corel-Layer"/>
  <path class="fil1" d="M2.40353 1.58322c0,0.14235 -0.0578307,0.271409 -0.151327,0.364945 -0.0937244,0.0937638 -0.222874,0.151783 -0.365228,0.151783 -0.142634,0 -0.271827,-0.0578701 -0.365346,-0.15139 -0.0935236,-0.0935157 -0.151394,-0.222705 -0.151394,-0.365339 0,-0.142358 0.0580157,-0.271508 0.151787,-0.36524 0.0935354,-0.0934961 0.222598,-0.151327 0.364953,-0.151327 0.142634,0 0.271772,0.0578228 0.365252,0.151307 0.0934803,0.0934843 0.151303,0.222626 0.151303,0.36526zm-0.302161 0.214945c0.054878,-0.0548976 0.0888228,-0.130902 0.0888228,-0.214945 0,-0.083748 -0.033937,-0.159559 -0.0887992,-0.214425 -0.0548622,-0.0548661 -0.130673,-0.0888031 -0.214417,-0.0888031 -0.0840472,0 -0.160055,0.0339449 -0.214953,0.0888228 -0.0546417,0.0546181 -0.0884488,0.130402 -0.0884488,0.214406 0,0.0837441 0.0339803,0.159598 0.0888898,0.214504 0.0549055,0.0549055 0.130764,0.0888858 0.214512,0.0888858 0.084,0 0.159783,-0.033811 0.214394,-0.0884449z"/>
  <path class="fil1" d="M3.18169 3.09985c-0.268213,-0.141543 -0.415346,-0.25989 -0.539091,-0.359429 -0.12748,-0.102551 -0.227614,-0.183102 -0.424866,-0.245488 -0.084189,-0.0266299 -0.182516,-0.0488622 -0.282406,-0.0593976 -0.127937,-0.0134921 -0.258583,-0.00854331 -0.364339,0.0301024 -0.0925236,0.0338071 -0.166299,0.0960276 -0.198976,0.199343 -0.00830315,0.026248 -0.0142047,0.0544331 -0.0173898,0.0846535l-0.101949 0.965059 0 0.000417323c-0.0136614,0.128689 0.0444331,0.434902 0.0858583,0.653236 0.0121102,0.0638425 0.022878,0.120587 0.0299173,0.162331l-0.00416535 0.0516654 -0.379461 1.11069 -0.000122047 -3.93701e-005c-0.00613386,0.0186772 -0.00180709,0.0334134 0.00738583,0.0424882 0.0055315,0.00546063 0.0123504,0.00976378 0.0197795,0.0126378 0.00751575,0.00290945 0.0154331,0.00433858 0.023063,0.00402756 0.0125551,-0.000515748 0.0252874,-0.00835827 0.0330315,-0.0259803l0 -0.000417323 0.497091 -1.12929 0.000141732 6.29921e-005c0.0125827,-0.030252 -0.0028937,-0.173571 -0.0129528,-0.266717 -0.00314173,-0.0291142 -0.00587402,-0.0544094 -0.0068937,-0.0669567l0.189587 -0.0741693 0.295484 0.374539 0.0183307 0.0341693 0.319067 1.02364c0.0163425,0.0338661 0.0334646,0.056378 0.0504488,0.0687008 0.00909449,0.00659449 0.0178071,0.00890945 0.0255748,0.00737795 0.0063937,-0.00125591 -0.00102362,0.000480315 0.00277559,-0.000374016 0.0141929,-0.00322047 0.0223346,-0.00906299 0.025815,-0.0160394 0.00606693,-0.0121654 0.00642126,-0.030189 0.00252756,-0.0499409 -0.00119685,-0.00604724 0.000177165,-0.000409449 -0.000649606,-0.00406299l-0.228752 -1.00681 -0.00208268 -0.033752c0.0039685,-0.0402559 -0.165685,-0.320201 -0.261752,-0.478724 -0.0290709,-0.0479685 -0.0528504,-0.0872047 -0.0580354,-0.0962717l-0.0125 -0.07 0.122945 -0.748803c0.0148976,-0.0907165 0.0444173,-0.199614 0.104417,-0.273453 0.079126,-0.0973819 0.191512,-0.137827 0.351098,-0.0403819l0.551917 0.33702c0.0737402,0.0390945 0.131232,0.0382598 0.166126,0.0168819 0.0101142,-0.00619291 0.0181181,-0.0142087 0.0236378,-0.0232559 0.00507874,-0.00832283 0.00805906,-0.0175512 0.00858661,-0.0269646 0.00146063,-0.0260354 -0.0159803,-0.0566339 -0.0582244,-0.0823346zm-0.40576 -0.525264c0.117055,0.0941575 0.256358,0.20622 0.509717,0.339465l0.00541732 0.00291339c0.118972,0.0718268 0.166953,0.177358 0.161354,0.27689 -0.00252362,0.0449213 -0.0161929,0.088063 -0.0394213,0.12613 -0.0227913,0.0373504 -0.0547953,0.0697874 -0.0944724,0.0940906 -0.0937717,0.0574449 -0.230173,0.0691693 -0.382697,-0.0140669l-0.00458268 -0.0025 -0.552433 -0.337335c-0.0406339,-0.024811 -0.0632087,-0.0219606 -0.0752638,-0.00712205 -0.031185,0.038378 -0.0491063,0.110665 -0.0594173,0.173453l-0.116736 0.711c0.0115906,0.0196378 0.0230197,0.0385039 0.0359961,0.0599094 0.101012,0.166681 0.273449,0.45122 0.290768,0.580646l0.227654 1.00197c0.00188189,0.00829921 0.00203543,0.00850394 0.00231102,0.00989764 0.0125,0.0633661 0.00733071,0.129248 -0.0208583,0.185776 -0.0307756,0.0617126 -0.0856378,0.109398 -0.16998,0.128543 -0.00755118,0.00169685 -0.00605906,0.00153543 -0.00861024,0.00203543 -0.0659606,0.0130236 -0.131528,-0.000610236 -0.191409,-0.0440394 -0.0465472,-0.0337638 -0.0883386,-0.0859606 -0.121642,-0.158098l-0.005 -0.0129173 -0.315571 -1.01243 -0.072185 -0.0914961c-0.00248031,0.0372874 -0.00820866,0.0702283 -0.018815,0.0945787l0 0.000417323 -0.497091 1.12929 -0.00015748 -7.08661e-005c-0.0454803,0.103177 -0.131201,0.149512 -0.219543,0.153138 -0.036815,0.00150394 -0.0738386,-0.00494882 -0.108063,-0.0182008 -0.034311,-0.0132835 -0.0660748,-0.0334488 -0.0922756,-0.0592992 -0.0631929,-0.0623543 -0.0957126,-0.154768 -0.0597677,-0.262035l0 -0.000413386 0.37076 -1.08523c-0.00680315,-0.0384488 -0.0152598,-0.0830039 -0.0245472,-0.131965 -0.0438386,-0.231067 -0.105327,-0.555138 -0.0883622,-0.714906l4.33071e-005 3.93701e-006 0.101906 -0.964646c0.00492126,-0.0466535 0.0136417,-0.0889409 0.0257283,-0.12715 0.0553976,-0.175142 0.177476,-0.279516 0.329803,-0.335177 0.139094,-0.0508307 0.302335,-0.0582441 0.458512,-0.0417717 0.116921,0.0123346 0.229748,0.0376378 0.324902,0.0677362 0.234421,0.0741457 0.34863,0.166016 0.494031,0.282984z"/>
  <path class="fil1" d="M5.74058 5.0801c0.0240118,0.00369685 0.0488504,0.0100906 0.0720472,0.0173858 0.0302165,0.00950787 0.0577795,0.0206378 0.0767126,0.0292047 0.0106732,0.00483071 0.0706614,-0.0123031 0.121567,-0.0355669 0.0126378,-0.00577559 0.0239291,-0.0118661 0.0327244,-0.0179882 -0.0246457,-0.0179803 -0.0665512,-0.0410709 -0.100819,-0.0599528 -0.0321299,-0.0177087 -0.0586181,-0.0323071 -0.0705315,-0.0437677 -0.0380748,-0.0366378 -0.0782559,-0.0698031 -0.106594,-0.093189 -0.0345512,-0.0285157 -0.0575433,-0.0474961 -0.0586063,-0.0742795l-1.1811e-005 0 -1.5748e-005 -0.000362205 -0.000192913 -0.00155512 0 -0.000374016 0.000125984 0c-0.00111024,-0.037689 0.0145276,-0.0447126 0.0387283,-0.0556378 0.000692913,-0.000311024 0.000374016,0.000629921 0.00101181,-5.51181e-005l1.5748e-005 -1.9685e-005c0.00611811,-0.00656299 0.0124843,-0.0133937 0.0183543,-0.0197677 -0.00584646,0.00247638 -0.011815,0.0051378 -0.0176929,0.00775984 -0.0139173,0.00620472 -0.0274606,0.0122441 -0.0422795,0.0171693l-0.0849843 0.028248 0.0160276 -0.0880394c0.00631496,-0.0346969 0.0104646,-0.0476024 0.0163701,-0.0659803 0.00237795,-0.0073937 0.00512205,-0.015937 0.00927953,-0.0307047 0.000724409,-0.00257874 0.00129528,-0.00493701 0.00166535,-0.00698819 -0.014248,-0.000909449 -0.0263465,0.0459724 -0.0713346,0.0714409 -0.0255984,0.0144961 -0.0524961,0.0297244 -0.0764409,0.0425709 -0.0272559,0.014626 -0.0538504,0.0280669 -0.0777008,0.0383346 -0.0266614,0.0114724 -0.0516575,0.0197244 -0.0734213,0.022685 -0.201248,0.0273701 -0.32322,-0.000724409 -0.455134,-0.0311142 -0.0882559,-0.0203346 -0.181268,-0.0417598 -0.306295,-0.0462598l-0.00475591 -0.000173228c-0.174669,-0.00629134 -0.426669,-0.0153819 -0.782803,0.142878 -0.0905787,0.0402598 -0.15935,0.117161 -0.225575,0.19122 -0.0986575,0.110319 -0.192409,0.21515 -0.353945,0.221331 -0.0834528,0.00319291 -0.141685,0.0125354 -0.18111,0.025689 -0.03,0.0100079 -0.0452717,0.020252 -0.050874,0.030126 -0.00465748,0.00820866 -0.00353937,0.017374 0.000425197,0.0262756 0.00695669,0.015626 0.0210197,0.0313819 0.0352992,0.0447047 0.115031,0.107346 0.195846,0.153016 0.257917,0.158028 0.0538071,0.00433858 0.0978819,-0.0263898 0.142346,-0.0740433 0.0353858,-0.0379252 0.0750394,-0.0848583 0.114327,-0.133618 0.0507756,-0.0630276 0.10111,-0.129319 0.141047,-0.18348 0.0297677,-0.0403661 0.0591811,-0.080248 0.091937,-0.114933 0.035689,-0.0377913 0.0746063,-0.0686299 0.120339,-0.0861142l0.101531 -0.0388189 -0.0317402 0.104028c-0.0061378,0.0201142 -0.015378,0.0475354 -0.026378,0.0792165 -0.0170276,0.0490394 -0.0264567,0.0755866 -0.0360591,0.102614 -0.0441929,0.124476 -0.0900748,0.15322 -0.121894,0.173154 -0.0164606,0.010311 -0.0214567,0.0134449 0.0254488,0.271929 0.00351969,0.0194094 0.0181654,0.0350984 0.0373622,0.0467047 0.017622,0.0106535 0.038252,0.0177677 0.058622,0.0214606 0.0204961,0.00372047 0.0401417,0.00409843 0.0557874,0.00126378 0.00507874,-0.00092126 0.00825591,-0.000622047 0.00996457,-0.000586614 -0.000492126,-0.00284646 -0.00165354,-0.00637402 -0.00328346,-0.0102677 -0.00633858,-0.0151575 -0.0190748,-0.0297441 -0.0317559,-0.0442598 -0.0349449,-0.0400118 -0.0696339,-0.0797244 -0.0614213,-0.159976 0.00200394,-0.0195551 0.00764961,-0.0397323 0.018315,-0.0600197 0.00996063,-0.0189449 0.024248,-0.0378425 0.0440157,-0.0561732 0.0259882,-0.0241024 0.0557638,-0.0297323 0.092315,-0.036626 0.0291575,-0.00550394 0.0647244,-0.0122205 0.0992323,-0.033122l0.0584685 -0.0354213 0.0198661 0.0654213 0.00244488 0.00805118c0.00825591,0.0271496 0.0123346,0.0405669 0.0132244,0.0593819 0.000822835,0.0174488 -0.00158661,0.0325906 -0.00633465,0.0624843l-0.00202362 0.0127913 -1.9685e-005 -3.93701e-006c-0.00396063,0.0285079 0.091626,0.123299 0.150815,0.181984l5.90551e-005 5.51181e-005c0.00990945,0.00982677 0.0181142,0.0185433 0.0259843,0.0269016 0.0268504,0.0285315 0.0489961,0.0520591 0.0895,0.0603465 0.016063,0.0032874 0.033248,0.00423228 0.0507441,0.00341339l0.000208661 0c0.0173307,-0.000811024 0.0350433,-0.00343701 0.0523898,-0.0073189 -0.0115157,-0.0180591 -0.0454843,-0.033252 -0.0811457,-0.0491929 -0.0990276,-0.0442756 -0.206189,-0.0921929 -0.167374,-0.265039 0.0215748,-0.0960472 0.0420827,-0.158465 0.081752,-0.198469 0.0443898,-0.0447598 0.10161,-0.0555669 0.192374,-0.0430433 0.0414921,0.00571654 0.0802008,0.0116142 0.110902,0.0167441 0.034315,0.00573228 0.0608937,0.0108465 0.0732047,0.0141535 0.044811,0.0120551 0.0551535,0.138398 0.0640669,0.247587 0.0046378,0.056752 0.00881496,0.107874 0.0114685,0.120441 0.00618504,0.0292795 0.0191929,0.064622 0.0373622,0.0950512 0.013374,0.0223937 0.0289094,0.0412244 0.0452717,0.0506732 0.00798031,0.0046063 0.0279567,-6.69291e-005 0.0493661,-0.00507874 0.0106535,-0.00249213 0.0215394,-0.00504724 0.0344882,-0.00722835 0.00305512,-0.000515748 0.00642913,-0.0016063 0.0098937,-0.00317717 0.0060748,-0.00275591 0.0113701,-0.00661417 0.0145709,-0.0110276 0.000811024,-0.00112205 0.00136614,-0.00168504 0.00135827,-0.00175197 -1.5748e-005,-9.44882e-005 -0.000169291,-0.00046063 -0.00046063,-0.0011063 -0.00434252,-0.00956693 -0.0179528,-0.0140315 -0.0312559,-0.0183937 -0.0424921,-0.013937 -0.0839252,-0.0275315 -0.0999488,-0.0998701 -0.0166181,-0.0750433 -0.0120472,-0.138496 -0.00720866,-0.205626 0.00139764,-0.0193898 0.0028189,-0.0390827 0.00354724,-0.0544173l0.00227953 -0.0479331 0.0479291 -0.00269291c0.0107008,-0.000598425 0.0205157,-0.00136614 0.0295,-0.00227559 0.00742913,-0.000748031 0.0163031,-0.00190945 0.0264764,-0.00343701l0.0552756 -0.00831102 0.00555906 0.055811c0.00875984,0.0879961 0.113142,0.146165 0.211744,0.201118 0.0743504,0.0414331 0.145969,0.0813543 0.189079,0.137437 0.00319685,0.00415748 0.00795276,0.00804331 0.0137008,0.0115118 0.00733071,0.00442126 0.0157717,0.00778346 0.024563,0.0100039 0.0137441,0.00347244 0.0416732,0.00333071 0.0694134,-0.00227953 0.0108976,-0.00220472 0.0211732,-0.00518504 0.0295118,-0.00902756 -0.0422756,-0.0220709 -0.116343,-0.0629843 -0.186854,-0.113339 -0.136406,-0.0974094 -0.259055,-0.23039 -0.168224,-0.357579 0.0373307,-0.0522283 0.105161,-0.0814882 0.180535,-0.0960433 0.096374,-0.018622 0.208354,-0.0141063 0.27474,-0.00388583zm0.040378 0.119055c-0.0183661,-0.00577559 -0.037815,-0.0108031 -0.0562126,-0.0136378 -0.0581654,-0.00895669 -0.155787,-0.0130079 -0.238906,0.00305118 -0.051126,0.00987402 -0.0948661,0.0265472 -0.113866,0.0531299 -0.0409134,0.0572953 0.0489882,0.141941 0.143224,0.20924 0.0931299,0.0665079 0.191815,0.114929 0.205358,0.121571l0.000208661 0 0.00163386 0.000811024 0.0252047 0.0264606c0.00779921,0.0178858 0.0109685,0.0349646 0.0103228,0.0511575 -0.0014685,0.0368819 -0.0208268,0.064126 -0.0498386,0.083622 -0.0215276,0.0144646 -0.0487756,0.0239961 -0.0763819,0.0295787 -0.0430748,0.00870866 -0.0903307,0.00795276 -0.116083,0.00144488 -0.0188701,-0.00476772 -0.0373031,-0.0121732 -0.0537283,-0.0220827 -0.0163976,-0.0098937 -0.0311299,-0.0225 -0.0428661,-0.0377638 -0.0299291,-0.038937 -0.0920709,-0.0735748 -0.156583,-0.109524 -0.0868346,-0.0483976 -0.177276,-0.098811 -0.2275,-0.175358 -0.00214173,0.042563 -0.00172047,0.0842402 0.00781496,0.127295 0.00285827,0.0129134 0.0158228,0.0171732 0.0291142,0.0215315 0.0354252,0.0116181 0.0716339,0.0235 0.0954213,0.0758976 0.00407874,0.00898031 0.00682677,0.0181457 0.00838189,0.0273583 0.00518898,0.0307913 -0.00342126,0.0587244 -0.0201063,0.0817441 -0.0143031,0.0197165 -0.0348898,0.0355433 -0.0570748,0.0456102 -0.0115,0.00522047 -0.0237874,0.00901181 -0.0361457,0.0110984 -0.00819291,0.00138189 -0.018122,0.00370866 -0.0278189,0.00597638 -0.0424961,0.00995276 -0.0821457,0.0192283 -0.126862,-0.00659055 -0.0332913,-0.0192283 -0.0613189,-0.0515354 -0.0831929,-0.0881693 -0.024437,-0.0409252 -0.041937,-0.0885039 -0.0502756,-0.127965 -0.00427953,-0.0202756 -0.00867717,-0.0740591 -0.0135551,-0.13378 -0.0060748,-0.0744016 0.0424724,-0.145531 0.014689,-0.153004 -0.00964567,-0.00259055 -0.032626,-0.00696063 -0.0632047,-0.0120669 -0.0315787,-0.00527559 -0.0693071,-0.0110551 -0.107571,-0.0163268 -0.0547362,-0.00755118 -0.085689,-0.00461811 -0.102791,0.012626 -0.0218189,0.0220039 -0.0361417,0.0698701 -0.0534213,0.146799 -0.0197559,0.0879724 0.0460984,0.117421 0.106957,0.14463 0.065126,0.0291181 0.126717,0.0566614 0.144638,0.128744 0.00619291,0.0248937 0.0051811,0.0491654 -0.00683465,0.0714803 -0.0120866,0.0224646 -0.0330906,0.0391732 -0.0660197,0.0473583 -0.0259961,0.00646063 -0.0535984,0.0109213 -0.0815669,0.012248l0 1.1811e-005c-0.0257441,0.00120866 -0.0517323,-0.000326772 -0.0769961,-0.0055 -0.0737402,-0.0150906 -0.10628,-0.0496654 -0.145744,-0.0915984 -0.00765354,-0.00813386 -0.0156417,-0.0166181 -0.0234567,-0.0243661l-5.90551e-005 -5.51181e-005c-0.0740039,-0.073378 -0.193677,-0.192035 -0.180827,-0.27389l0 -0.000208661 0.00202362 -0.0127913c0.00134646,-0.0084685 0.00243701,-0.0153661 0.00326772,-0.0210433 -0.0238937,0.00762992 -0.045878,0.0117795 -0.0655866,0.0155 -0.0198346,0.00374016 -0.0359921,0.00679528 -0.0394016,0.00995669 -0.0105197,0.00975197 -0.0177283,0.0190591 -0.0223465,0.0278425 -0.00391339,0.00744488 -0.00596063,0.0145669 -0.00664567,0.0212717 -0.00351575,0.0343661 0.0159646,0.0566732 0.0355866,0.0791417 0.0185512,0.0212362 0.037189,0.0425787 0.0500866,0.0734252 0.00680315,0.0162638 0.0110866,0.0338583 0.0114646,0.0515118 0.000409449,0.0190906 -0.00369685,0.0376142 -0.0137559,0.0542638 -0.0162598,0.0268976 -0.0467913,0.043752 -0.0839724,0.0504961 -0.0276575,0.00501181 -0.0605394,0.0046811 -0.0932835,-0.00126378 -0.032878,-0.00596457 -0.066252,-0.0174843 -0.094874,-0.0347913 -0.0434094,-0.0262441 -0.0772165,-0.0655591 -0.0869449,-0.119209 -0.033748,-0.18598 -0.0422598,-0.27065 -0.0318465,-0.316299 -0.0147323,0.0188661 -0.0297756,0.0378661 -0.0448898,0.056626 -0.0409449,0.0508189 -0.0823189,0.0997835 -0.119327,0.139445 -0.0656378,0.0703425 -0.134571,0.115386 -0.228591,0.107799 -0.0857598,-0.00692126 -0.187634,-0.0608976 -0.322083,-0.186366 -0.0227992,-0.0212717 -0.0460394,-0.0481969 -0.0598819,-0.0792874 -0.0168346,-0.037815 -0.0200354,-0.0794646 0.00415748,-0.122102 0.0178465,-0.0314567 0.0517992,-0.0591732 0.109622,-0.0784646 0.0483937,-0.0161457 0.116626,-0.0274921 0.21111,-0.0311063 0.11624,-0.00444488 0.195315,-0.0928661 0.278528,-0.185913 0.0735984,-0.0823071 0.150028,-0.167772 0.261827,-0.217465 0.378732,-0.168303 0.644945,-0.158701 0.829465,-0.152051l0.00475591 0.000173228c0.135846,0.00488976 0.233575,0.0274016 0.326295,0.0487638 0.122228,0.0281575 0.235252,0.0541929 0.41722,0.0294449 0.0107441,-0.00146063 0.026622,-0.00705512 0.0455,-0.0151811 0.021685,-0.00933465 0.0453465,-0.0212795 0.0693701,-0.0341693 0.0264567,-0.0141929 0.0510079,-0.0280945 0.0743622,-0.0413189 0.0865787,-0.0490157 0.160988,-0.0911378 0.200547,-0.0554409 0.0169646,0.0153189 0.0259921,0.0343622 0.0290945,0.055626 0.00219291,0.0150394 0.00103543,0.0307165 -0.00240945,0.0463701 0.0104646,-0.00262205 0.0211969,-0.0043937 0.0322441,-0.0048622 0.0251929,-0.00106299 0.0469724,0.00479134 0.0646457,0.0189606 0.0191457,0.0153504 0.0300276,0.0371299 0.0312874,0.0664213l0.000208661 0.00229134 0 0.000129921 -0.000149606 0c0.000677165,0.0389646 -0.0264134,0.0740315 -0.0550984,0.105713 0.0295945,0.0244528 0.0690354,0.057378 0.106008,0.0929528 0.00152362,0.00146457 0.0225512,0.0130591 0.0480354,0.0271063 0.0478228,0.0263504 0.108787,0.0599488 0.13822,0.0890394 0.0217165,0.0214488 0.029937,0.045248 0.0276378,0.070311 -0.0025,0.0272992 -0.0180079,0.0508189 -0.0417756,0.0706063 -0.0170945,0.0142244 -0.0391339,0.0270433 -0.0630748,0.0379843 -0.0735,0.0335906 -0.177571,0.0504252 -0.20948,0.0359764 -0.0159803,-0.00723228 -0.0392165,-0.0166181 -0.0646339,-0.0246142zm-1.99967 -0.00400787c-0.0165512,0.0224449 -0.0348858,0.0469803 -0.0543425,0.0725551 0.00319685,-0.00206299 0.00652362,-0.00414961 0.00999213,-0.00632283 0.017685,-0.0110748 0.0427362,-0.0267795 0.0722677,-0.103772 -0.00929921,0.0122913 -0.0185906,0.0248898 -0.0279173,0.0375394zm0.817941 0.538283c-0.000413386,0.000862205 -0.000523622,0.00111417 0.000129921,-0.000102362 0.000740157,-0.00137795 0.000468504,-0.000925197 -0.000129921,0.000102362z"/>
  <polygon class="fil1" points="3.44437,3.26354 5.36437,4.6502 5.3023,4.73645 3.3823,3.34979 "/>
  <rect class="fil2" width="6.82666" height="6.82666"/>
 </g>
</svg>
