<?xml version="1.0" ?><svg id="Outline" viewBox="0 0 512 512" xmlns="http://www.w3.org/2000/svg"><defs><style>.cls-1{fill:#262626;}</style></defs><path class="cls-1" d="M435.14,130.7l-24.79-11.36a36.38,36.38,0,0,0-7.08-14.58L374.11,68.52A36.2,36.2,0,0,0,345.79,55h-.18L136.87,56a36.44,36.44,0,0,0-36.18,36.36v27.45L76.86,130.7c-8.92,4.09-14.68,13.71-14.68,24.51V432.27A23.25,23.25,0,0,0,85.4,455.49H426.6a23.25,23.25,0,0,0,23.22-23.22V155.21C449.82,144.41,444.06,134.79,435.14,130.7Zm-8,24.51V268.83H411.31V144.72l14.38,6.6C426.12,151.53,427.14,153,427.14,155.21ZM137,78.64l208.74-1a13.48,13.48,0,0,1,10.72,5.1L385.61,119a13.69,13.69,0,0,1,3,8.57V268.83H123.37V92.32A13.71,13.71,0,0,1,137,78.64ZM86.31,151.32l14.38-6.6V268.83H84.86V155.21C84.86,153,85.88,151.53,86.31,151.32ZM426.6,432.81H85.4a.54.54,0,0,1-.54-.54V291.51H427.14V432.27A.54.54,0,0,1,426.6,432.81Z"/><path class="cls-1" d="M173.25,171.9H337.08a11.34,11.34,0,1,0,0-22.68H173.25a11.34,11.34,0,0,0,0,22.68Z"/><path class="cls-1" d="M173.25,233.48H337.08a11.34,11.34,0,1,0,0-22.67H173.25a11.34,11.34,0,1,0,0,22.67Z"/></svg>