<?xml version="1.0" ?><svg enable-background="new 0 0 32 32" version="1.1" viewBox="0 0 32 32" xml:space="preserve" xmlns="http://www.w3.org/2000/svg" xmlns:xlink="http://www.w3.org/1999/xlink"><g id="Glyph"><g><circle cx="16" cy="15.092" r="2.346"/><path d="M11.244,20.197c0,2.188,0,2.695,0,2.695s4.661,0,4.645,0l-2.267-4.915C13.622,17.977,11.244,18.009,11.244,20.197z"/><path d="M20.756,20.197c0-2.188-2.378-2.219-2.378-2.219l-2.267,4.915c-0.016,0,4.645,0,4.645,0S20.756,22.385,20.756,20.197z"/><polygon points="14.367,17.977 16,21.592 17.633,17.977 16,17.977   "/><polygon points="16,4.799 29.669,14.638 32.005,11.392 16,-0.129 -0.005,11.392 2.331,14.638   "/><polygon points="4.865,16.174 4.865,31.876 27.135,31.876 27.135,16.174 23.135,16.174 23.135,27.876 8.865,27.876 8.865,16.174       "/></g></g></svg>