<svg xmlns="http://www.w3.org/2000/svg" width="512" height="512" style="enable-background:new 0 0 512 512" xml:space="preserve"><path d="M160 256H96v-64h64v64zm128-64h-64v64h64v-64zm128 0h-64v64h64v-64zm-256 96H96v64h64v-64zm128 0h-64v64h64v-64zm128 0h-64v64h64v-64zm-256 96H96v64h64v-64zm128 0h-64v64h64v-64zM128 96c17.672 0 32-14.313 32-32V32c0-17.688-14.328-32-32-32S96 14.313 96 32v32c0 17.688 14.328 32 32 32zm384-32v448H0V64h80c0 26.469 21.531 48 48 48s48-21.531 48-48h160c0 26.469 21.531 48 48 48s48-21.531 48-48h80zm-32 96H32v320h448V160zm-96-64c17.688 0 32-14.313 32-32V32c0-17.688-14.312-32-32-32s-32 14.313-32 32v32c0 17.688 14.312 32 32 32z"/></svg>