<svg viewBox="0 0 512 512" xml:space="preserve" xmlns="http://www.w3.org/2000/svg"><path d="M400.2 170.1h-89.4c13.9-10 22.5-23.7 23.6-36.9 1.2-13.9-6.6-30.3-31.7-34.5-2.8-.5-5.6-.7-8.3-.7-10.9 0-19.9 4-26.7 11.8-6.4 7.3-9.9 17.2-11.8 27.2-1.9-10-5.5-20-11.8-27.2-6.7-7.8-15.7-11.8-26.6-11.8-2.6 0-5.4.2-8.3.7-25.1 4.2-32.8 20.6-31.7 34.5 1.1 13.2 9.8 26.9 23.6 36.9h-89.4c-12.5 0-22.6 10.1-22.6 22.6V207c0 12.5 10.1 22.6 22.6 22.6h6.6V386c0 15.5 12.6 28.1 28.1 28.1h219.1c15.5 0 28.1-12.6 28.1-28.1V229.6h6.6c12.5 0 22.6-10.1 22.6-22.6v-14.3c0-12.5-10.1-22.6-22.6-22.6zm-121.1-50.5c3.9-4.5 8.9-6.6 15.4-6.6 1.8 0 3.8.2 5.8.5 7.6 1.3 20.3 5.4 19.2 18.5-1.2 14.5-19.6 35.1-50.2 37.8-1-14.1-.3-38.5 9.8-50.2zM192.5 132c-1.1-13.1 11.6-17.2 19.2-18.5 2-.3 4-.5 5.8-.5 6.5 0 11.5 2.2 15.4 6.6 10.1 11.6 10.8 36 9.8 50.2-30.6-2.7-49-23.3-50.2-37.8zm186.1 253.9c0 7.2-5.9 13.1-13.1 13.1H146.4c-7.2 0-13.1-5.9-13.1-13.1V229.6h245.2v156.3zM407.8 207c0 4.2-3.4 7.6-7.6 7.6H111.8c-4.2 0-7.6-3.4-7.6-7.6v-14.3c0-4.2 3.4-7.6 7.6-7.6h288.4c4.2 0 7.6 3.4 7.6 7.6V207z"/><path d="M216.8 301.9c14.8 0 26.8-12 26.8-26.8s-12-26.8-26.8-26.8-26.8 12-26.8 26.8 12 26.8 26.8 26.8zm0-38.6c6.5 0 11.8 5.3 11.8 11.8s-5.3 11.8-11.8 11.8-11.8-5.3-11.8-11.8 5.3-11.8 11.8-11.8zm78.4 63.3c-14.8 0-26.8 12-26.8 26.8s12 26.8 26.8 26.8 26.8-12 26.8-26.8-12-26.8-26.8-26.8zm0 38.7c-6.5 0-11.8-5.3-11.8-11.8s5.3-11.8 11.8-11.8S307 347 307 353.5s-5.3 11.8-11.8 11.8zm-97.8 7.6c1.5 1.5 3.4 2.2 5.3 2.2s3.8-.7 5.3-2.2l106.6-106.6c2.9-2.9 2.9-7.7 0-10.6-2.9-2.9-7.7-2.9-10.6 0L197.4 362.3c-3 2.9-3 7.7 0 10.6z"/></svg>