<svg id="Outline" viewBox="0 0 512 512" xmlns="http://www.w3.org/2000/svg"><defs><style>.cls-1{fill:#262626}</style></defs><path class="cls-1" d="m435.14 130.7-24.79-11.36a36.38 36.38 0 0 0-7.08-14.58l-29.16-36.24A36.2 36.2 0 0 0 345.79 55h-.18l-208.74 1a36.44 36.44 0 0 0-36.18 36.36v27.45L76.86 130.7c-8.92 4.09-14.68 13.71-14.68 24.51v277.06a23.25 23.25 0 0 0 23.22 23.22h341.2a23.25 23.25 0 0 0 23.22-23.22V155.21c0-10.8-5.76-20.42-14.68-24.51Zm-8 24.51v113.62h-15.83V144.72l14.38 6.6c.43.21 1.45 1.68 1.45 3.89ZM137 78.64l208.74-1a13.48 13.48 0 0 1 10.72 5.1L385.61 119a13.69 13.69 0 0 1 3 8.57v141.26H123.37V92.32A13.71 13.71 0 0 1 137 78.64Zm-50.69 72.68 14.38-6.6v124.11H84.86V155.21c0-2.21 1.02-3.68 1.45-3.89ZM426.6 432.81H85.4a.54.54 0 0 1-.54-.54V291.51h342.28v140.76a.54.54 0 0 1-.54.54Z"/><path class="cls-1" d="M173.25 171.9h163.83a11.34 11.34 0 1 0 0-22.68H173.25a11.34 11.34 0 0 0 0 22.68Zm0 61.58h163.83a11.34 11.34 0 1 0 0-22.67H173.25a11.34 11.34 0 1 0 0 22.67Z"/></svg>