<svg width="65" height="64" xmlns="http://www.w3.org/2000/svg"><g stroke="#262626" stroke-width="2" fill="#262626" fill-rule="evenodd"><path d="M56.9 50c-4.9-3.7-11.3-4.5-13.8-5.8-2.6-1.3-6.1-3.7-6.1-5.8 0-1.1.5-1.8.8-2 5.1-2.8 6.8-11.9 7.2-11.9 1.7 0 2.9-4.3 2.9-7.1 0-2.3-.7-2.2-1.9-2.9v-.3C46 6.8 39.9 1 32.5 1 25 1 18.6 7 18.6 14.4v.3c-1.2.7-1.7 1.1-1.7 3.3 0 2.9 1 6.9 2.7 6.9.3 0 2.5 8.8 7.4 11.8.3.2.8.7.8 1.7 0 2.4-3.3 4.5-6.1 5.9C18.3 46 1.9 47.4 1.9 63h53"/><path d="M55 51c-1.4-3.1-9-3.3-9 2.2 0 4.3 7.4 9.8 9 9.8 1.6 0 9-5.5 9-9.8 0-6.1-9.9-5.7-9.9.8"/></g></svg>